PathFileType	4	(X/Y/Z)	Patient4_TMGait_0pt7_01_left_18.trc.trc
DataRate	CameraRate	NumFrames	NumMarkers	Units	OrigDataRate	OrigDataStartFrame	OrigNumFrames
86.419753086420	86.419753086420	6	33	mm	86.419753086420	53	       141
Frame#	Time	Sacral			L.Shoulder			Chest			R.Shoulder			Neck			R.ASIS			L.ASIS			R.Thigh.Superior			R.Thigh.Lateral			R.Thigh.Inferior			R.Patella			L.Thigh.Superior			L.Thigh.Lateral			L.Thigh.Inferior			L.Patella			L.Shank.Superior			L.Shank.Lateral			L.Shank.Inferior			R.Shank.Superior			R.Shank.Lateral			R.Shank.Inferior			R.Heel			R.Midfoot.Superior			R.Midfoot.Lateral			R.Toe			L.Heel			L.Midfoot.Lateral			L.Midfoot.Superior			L.Toe			L.Elbow			L.Wrist			R.Elbow			R.Wrist			
		X1	Y1	Z1	X2	Y2	Z2	X3	Y3	Z3	X4	Y4	Z4	X5	Y5	Z5	X6	Y6	Z6	X7	Y7	Z7	X8	Y8	Z8	X9	Y9	Z9	X10	Y10	Z10	X11	Y11	Z11	X12	Y12	Z12	X13	Y13	Z13	X14	Y14	Z14	X15	Y15	Z15	X16	Y16	Z16	X17	Y17	Z17	X18	Y18	Z18	X19	Y19	Z19	X20	Y20	Z20	X21	Y21	Z21	X22	Y22	Z22	X23	Y23	Z23	X24	Y24	Z24	X25	Y25	Z25	X26	Y26	Z26	X27	Y27	Z27	X28	Y28	Z28	X29	Y29	Z29	X30	Y30	Z30	X31	Y31	Z31	X32	Y32	Z32	X33	Y33	Z33	

53	21.251714285714	821.616194592599	1004.920394620686	442.964580305278	1002.399630458414	1439.590537990679	273.637936636548	1106.480927621722	1363.635791578817	431.862448440154	1024.172870102749	1435.338597782815	608.456082196889	1006.710850222803	1494.641382683644	430.485436683664	1049.450173302497	943.097790096119	558.448764876237	1037.871184416976	964.728469525146	284.548696934266	1134.125034190315	776.500142114439	532.517921732492	1097.805001233101	655.691408763831	607.766801682240	1189.152155559984	617.489366250607	528.967067227538	1209.331378467257	502.398882185220	552.687619877480	1085.785410850642	750.374932467306	315.139841553279	993.106435635025	634.792851106001	259.125450689778	1074.297738590959	555.166802154536	323.826461784154	1072.806387790130	484.892181567912	336.020222547693	1040.960690970504	413.109354784556	328.140408465531	945.185533559813	304.395848877762	277.683323746762	985.502401754705	190.905559996257	350.647964606266	1127.245443213512	430.859083630100	561.994247157945	1000.736982336410	402.904899869075	618.912000464229	981.270392519294	292.686976171291	575.197837608013	782.057341972349	253.724362290237	539.748321063677	934.786985633477	167.447930796326	589.981426323559	825.097002935067	186.216212739381	617.267672750163	976.368513512973	44.705483811809	621.840163537048	848.435959778863	39.067180333237	390.562258546312	922.190682826229	36.138419238606	309.730593534687	1005.913776219801	96.128470368269	337.080102359810	1134.186488397942	41.040078776336	306.635195141907	996.060797675039	1101.146762126931	124.190114259565	1147.731633644727	889.698296272930	160.033246097323	979.986819768672	1085.215046335533	711.239344704636	1189.266932942248	936.914190528132	680.742144322689	
54	21.263285714286	820.642207866585	1005.221760320863	441.656922239558	1004.185655674488	1439.791236802661	273.151017670321	1106.216369890566	1363.831711944793	432.640072500225	1022.029561069833	1435.733366168934	608.253215987910	1006.595713240840	1494.925019148188	429.973996541722	1047.818019530864	944.082349340446	559.222872180749	1038.352861420055	965.162452998834	284.863491489955	1135.352436590841	781.254273968397	532.388054806633	1102.340951262674	659.476078990347	607.666081056451	1194.491498112321	623.526605952068	528.740134961639	1217.857170093576	509.108700210537	552.420208066561	1083.281800013258	749.185923082408	315.660319571607	989.404490942340	634.773494509056	259.074809178309	1069.070636452579	554.198755553012	324.277191493331	1066.589100132969	484.074050852864	336.495445596190	1034.605016468324	412.604477045048	328.350801577741	938.469834816022	304.362598462813	277.608056086151	977.933660714231	190.687834603653	350.717742939004	1138.180964161642	435.102289359426	561.704713985141	1012.833305914283	402.289275622519	618.363853468410	997.628277317678	291.397285882721	574.527062860711	799.644933538911	243.692416966235	538.761025821205	956.328887103404	165.067807299375	589.320413415996	845.978793320249	178.681303024436	616.541810113612	1003.992898914357	45.029831050038	621.687256758619	840.250008740173	39.118367106842	390.468668237750	914.045310240476	36.139035108020	309.675529443812	997.804659609882	96.110534265786	337.037012736265	1126.051568009949	40.951179476754	306.586928491766	1005.037990085625	1102.662609038369	121.440252523214	1165.592776050650	898.921532475675	159.734404843200	972.489935435646	1085.848517437766	710.317768712877	1167.166402491836	916.485763004702	686.071867128635	
55	21.274857142857	819.712710579216	1005.500261860430	440.478026267433	1006.120718350322	1440.008561640794	272.799491786004	1106.056395358161	1363.967838883709	433.509052521784	1020.028189651575	1436.050995694358	608.119488291691	1006.574851774653	1495.186439861362	429.573606674641	1046.221160433086	945.046081921821	560.102528209971	1038.803479633748	965.474493223826	285.324524711413	1136.288109587694	785.760244473257	532.536502942990	1106.329260562289	663.075972241029	607.745996980097	1199.140303217228	629.214822584409	528.738541229728	1225.491522406415	515.710951077592	552.396721058123	1080.689653313367	748.006311401538	316.461184526757	985.684822575121	634.773434204929	259.085645532111	1063.731447365167	553.248810264007	324.833703978643	1060.245962945041	483.288421493098	337.008905550447	1028.160040021833	412.125953416908	328.595366480943	931.694593649335	304.337795566019	277.560346965008	970.339450561459	190.485407861824	350.798675594594	1148.668031005595	439.134260109432	561.608085540911	1025.017919518355	400.818420973821	618.223479239916	1014.576536938220	289.400352436608	574.164743463790	818.425784879389	232.188189065217	538.495987855953	979.107384989510	161.862816960976	588.804956335857	868.351530242183	169.809374451890	616.233631126382	1033.306692488047	44.895757928126	621.277139396728	832.077481197141	39.180107051867	390.375445698782	905.903204488477	36.143110696901	309.631082384829	989.704498453621	96.098716030325	336.998922355679	1117.921331010808	40.865216120740	306.541756685842	1013.475710354112	1104.380993338750	119.044440223702	1183.110681504262	909.275465650635	159.953294689625	965.683146029229	1086.489161981725	709.893370342203	1143.565485611553	897.887602318838	691.304863660255	
56	21.286428571429	818.841663847883	1005.737443357989	439.444280164579	1008.145548607640	1440.222146690349	272.604437746778	1105.999552651752	1364.024932028666	434.460572459722	1018.205258185926	1436.256580997390	608.072304811675	1006.656405981645	1495.404618381949	429.312459216538	1044.677752975464	945.943006088181	561.049908002350	1039.161716148215	965.621825544010	285.945290896122	1136.945109527263	789.898684361538	532.910177829113	1109.720368994254	666.375052263331	607.977298912472	1203.041958471968	634.393484846377	528.933922557380	1232.127175379383	522.041505671191	552.584286353530	1078.030257635492	746.831798793819	317.511035781116	981.957691246133	634.782510012203	259.148865772096	1058.303085227149	552.313116060803	325.470108970879	1053.805587820534	482.536735651625	337.541820250226	1021.646306056264	411.668939360301	328.865203765236	924.870845846393	304.319426856241	277.538508749034	962.733337198133	190.296216025033	350.890264473249	1158.593889053660	442.880827847622	561.683673383604	1037.273451178291	398.529252373737	618.512546835776	1032.017962248611	286.811535095176	574.125782216048	838.435697368528	219.478261299550	538.991376559778	1002.978372657062	158.063167285160	588.483854162145	892.174016913138	159.918044231179	616.393308461778	1064.003969598942	44.565690517604	620.684250688200	823.921853288518	39.254819606135	390.280717407755	897.765620600228	36.151473497130	309.597601683265	981.614747661409	96.092235057866	336.966927296761	1109.795473659117	40.782769964703	306.499297064791	1021.434092642453	1106.239838695278	117.002015167340	1200.227299264728	920.685086180147	160.678970049222	959.356701089084	1087.109438673247	709.888069419099	1118.729516177441	881.369053323773	696.429757067330	
57	21.298000000000	818.049624835640	1005.918154036909	438.575742154419	1010.198901519562	1440.411362836725	272.585664569100	1106.043622511396	1363.986982912536	435.487046294078	1016.596146913062	1436.323143361649	608.131605672139	1006.846982405055	1495.558578983405	429.220496281903	1043.218350877717	946.734918291344	562.034612156122	1039.380975381281	965.579230068202	286.727434685363	1137.335408036733	793.549427737656	533.456699792743	1112.455613888446	669.257641541705	608.335105195217	1206.140924495864	638.906469257660	529.304081756815	1237.672742980803	527.939477547088	552.945896926329	1075.322448146458	745.652076651493	318.759800498063	978.222649234626	634.790090506062	259.257519445995	1052.802357231677	551.386561270566	326.158051428745	1047.289331537144	481.818749810145	338.078269065704	1015.077213047156	411.228970186475	329.153014535519	918.003502744280	304.306067730529	277.542507754052	955.124352095590	190.118839738794	350.993145568350	1167.848377574425	446.272973312163	561.909953425989	1049.567382307186	395.482446603712	619.238622396761	1049.840227933366	283.761162874453	574.414049937761	859.682277280891	205.826648266365	540.245058338833	1027.784036133590	153.926799488291	588.403725072546	917.378416174259	149.340752174627	617.049764125247	1095.787235163060	44.357533109525	619.997608882595	815.783926306447	39.343724318824	390.184325858804	889.632635166660	36.164951268797	309.575406257366	973.535002857788	96.089363708937	336.942584678320	1101.672040558930	40.704265212241	306.460134998062	1028.989678607214	1108.183634768570	115.306181182488	1216.842865914679	933.030454321106	161.863884794928	953.281317508576	1087.717896508199	710.203436368611	1092.979911717479	867.135469667599	701.415847634119	
58	21.309571428571	817.363181840122	1006.028752931853	437.894838287162	1012.223361391115	1440.555931077369	272.759056602960	1106.186288698800	1363.841188596363	436.581664307866	1015.233414801726	1436.233206309542	608.318428811948	1007.150845951087	1495.628039332139	429.324459576411	1041.886385641402	947.392041029625	563.035767058006	1039.443861645209	965.345404437779	287.651606958550	1137.471472026932	796.594916438089	534.130887849964	1114.474947943749	671.612843322161	608.804248718952	1208.386181456709	642.607920337146	529.833831679978	1242.060197903732	533.254324956985	553.443204691135	1072.582677769409	744.452977600412	320.143317058669	974.469059848293	634.786346530674	259.406055206318	1047.238277326973	550.463084154431	326.868100345754	1040.709359496198	481.131983808148	338.604851591280	1008.457927157555	410.802266102786	329.451838437747	911.090752626290	304.296907715640	277.573040936474	947.515071308069	189.952158031382	351.108284334228	1176.328356269578	449.248057727389	562.267651107912	1061.845262235523	391.760192394606	620.393677587056	1067.911016500294	280.387338451083	575.021684643944	882.132268274254	191.495099300696	542.213650495483	1053.341979602731	149.722723518334	588.603230688359	943.853777507263	138.413504956367	618.205814943249	1128.351498917947	44.608336922059	619.308703522601	807.661679857177	39.446285795072	390.088616365127	881.503033748364	36.184245859932	309.564765597657	965.462980073654	96.087579013191	336.927728349322	1093.547613827926	40.630039720031	306.425684609855	1036.216786022663	1110.164198289394	113.945741021635	1232.831974063008	946.160769610343	163.433567912405	947.234405144531	1088.355394027871	710.738974856677	1066.684609416313	855.331270208218	706.210044379890	
